<svg xmlns="http://www.w3.org/2000/svg" version="1.1" xmlns:xlink="http://www.w3.org/1999/xlink" xmlns:svgjs="http://svgjs.dev/svgjs" width="1440" height="867" preserveAspectRatio="none" viewBox="0 0 1440 867"><g mask="url(&quot;#SvgjsMask4981&quot;)" fill="none"><rect width="1440" height="867" x="0" y="0" fill="url(&quot;#SvgjsRadialGradient4982&quot;)"></rect><path d="M36 867L903 0L1414.5 0L547.5 867z" fill="url(&quot;#SvgjsLinearGradient4983&quot;)"></path><path d="M543.2 867L1410.2 0L1963.7 0L1096.7 867z" fill="url(&quot;#SvgjsLinearGradient4983&quot;)"></path><path d="M1352 867L485 0L-125.5 0L741.5 867z" fill="url(&quot;#SvgjsLinearGradient4984&quot;)"></path><path d="M898.8 867L31.799999999999955 0L-503.70000000000005 0L363.29999999999995 867z" fill="url(&quot;#SvgjsLinearGradient4984&quot;)"></path><path d="M974.5325697113298 867L1440 401.53256971132976L1440 867z" fill="url(&quot;#SvgjsLinearGradient4983&quot;)"></path><path d="M0 867L465.46743028867024 867L 0 401.53256971132976z" fill="url(&quot;#SvgjsLinearGradient4984&quot;)"></path></g><defs><mask id="SvgjsMask4981"><rect width="1440" height="867" fill="#ffffff"></rect></mask><radialGradient cx="0%" cy="0%" r="1680.86" gradientUnits="userSpaceOnUse" id="SvgjsRadialGradient4982"><stop stop-color="#0e2a47" offset="0"></stop><stop stop-color="rgba(11, 42, 82, 1)" offset="0.21"></stop><stop stop-color="rgba(11, 42, 82, 1)" offset="0.26"></stop><stop stop-color="rgba(11, 42, 82, 1)" offset="0.32"></stop><stop stop-color="rgba(11, 42, 82, 1)" offset="0.34"></stop><stop stop-color="rgba(11, 42, 82, 1)" offset="0.34"></stop><stop stop-color="rgba(11, 42, 82, 1)" offset="1"></stop></radialGradient><linearGradient x1="0%" y1="100%" x2="100%" y2="0%" id="SvgjsLinearGradient4983"><stop stop-color="rgba(15, 70, 185, 0.2)" offset="0"></stop><stop stop-opacity="0" stop-color="rgba(15, 70, 185, 0.2)" offset="0.66"></stop></linearGradient><linearGradient x1="100%" y1="100%" x2="0%" y2="0%" id="SvgjsLinearGradient4984"><stop stop-color="rgba(15, 70, 185, 0.2)" offset="0"></stop><stop stop-opacity="0" stop-color="rgba(15, 70, 185, 0.2)" offset="0.66"></stop></linearGradient></defs></svg>